<?xml version="1.0" encoding="UTF-8"?>
<svg id="Capa_2" data-name="Capa 2" xmlns="http://www.w3.org/2000/svg" viewBox="0 0 393.67 307.34">
  <defs>
    <style>
      .cls-1 {
        fill: #aac810;
      }
    </style>
  </defs>
  <g id="Capa_1-2" data-name="Capa 1">
    <g>
      <path class="cls-1" d="M308.2,0c2.87,1.31,3.62,2.34,4.72,5.2,4.14,10.74,5.48,24.26,9.53,35.26-.88,10.75-15.78.27-18.59,9.2l11.43,66.21c1.41,2.72,11.77,4.56,15.57,6.01,29.58,11.27,52.41,36,59.79,67.08,1.29,5.42,1.56,11.04,3.02,16.4v11.22l-4.37,21.95c-9.77,31.75-34.91,56.29-67.1,64.95l-19.18,3.7h-11.22l-23.77-5.15c-14.33-4.58-30.93-15.16-41-26.32-5.42-6.01-8.92-13.35-14.38-19.27l-76.71-.13c-18.95-1.73-16.23-17.06-21.32-30.47-15.7-41.43-66.09-52.08-100.35-25.63-4.63,3.58-8.61,11.74-14.27,3.43v-.86c3.44-6.92,10.73-10.22,15.95-15.55,1.1-13.63-1.99-23.78,9.53-33.61,16.51-14.08,45.18-21.06,66.25-24.38l1.93-1.52.63-57.22c1.16-5.96,10.31-2.87,13.61-4.48,3.35-1.63,1.67-13.41.17-16.57-2.37-4.97-16.37-13.8-6.82-17.76,6.35-2.63,16.85,16.57,17.65,22.47.41,3.05-.48,9.2,1,11.08,2.35,2.99,12.46-1.14,14.38,4.61l.83,55.25c1.69,3.82,14.85,3.64,17.31.94,2.21-2.43,6.43-21.45,8.11-26.41,5.55-16.39,13.04-32.13,19-48.37,1.91-9.57-12.23-3.04-14.72-6.97-.46-1.04-.82-2.18-.83-3.33-.05-3.48,8.18-34.15,9.94-37.54,1.15-2.2,1.95-2.29,3.91-3.43h130.36ZM183.64,9.67c-1.46.59-2.31,1.7-2.97,3.07-1.87,3.87-7.57,22.34-1.5,23.47l129.56-.76c3.28-3.2-2.57-22.95-4.75-24.75-.69-.57-1.3-1.14-2.26-1.19l-118.07.16ZM193.13,45.91c-1.5.56-2.23,1.76-2.98,3.06-5.53,9.58-13.24,31.91-17.27,43.14-3.62,10.09-9.83,26.92-11.22,37.11-2.91,21.34,1.74,47.82-.26,69.71-.01,2.02,1.03,3.53,3.09,3.82l37.19-.75c2.33-6.73,3.08-13.8,5.28-20.61,6.74-20.92,20.47-37.36,38.12-49.91,2.97-2.11,10.66-5.06,11.31-8.54l-.76-75.99-62.49-1.03ZM266.76,47.89v69.03c0,.15,1.33,1.52,1.74,1.71,3.1,1.47,17.21-2.53,22.01-2.99,3.29-.32,11.66,1.04,13.45-1.22l.86-2.67-10.93-63.36c-.41-.76-1.35-1.87-2.11-2.21-1.63-.72-19.57-.89-21.97-.43-1.01.19-2.81,1.28-3.04,2.13ZM103.6,78.95v46.59c0,2.92,14.18,2.48,16.89,2.21,1.28-.13,4.7-.67,4.7-2.21v-46.59c0-2.92-14.18-2.48-16.89-2.21-1.55.16-4.19.41-4.7,2.21ZM289.9,125.37c-61.17,5.01-97.36,72.43-68.48,126.6,31.56,59.2,117.83,60.71,151.11,2.59,34.85-60.85-12.82-134.9-82.64-129.19ZM103.42,137.45c-20.21,1.26-44.93,6.8-62.56,16.86-6.41,3.66-14.09,8.1-14.96,16.11-1.75,16.1,8.07,8.21,17.82,6.6,34.44-5.69,68.95,15.32,80.41,47.96,2.03,5.78,2.92,19.63,8.78,21.43l69.59.43c8.13-1.84,3.38-7.79,2.37-12.81-1.03-5.1-1.51-15.56-3.07-19.37-.34-.83-.64-1.53-1.49-1.96-13.61-1.95-29.41,1.15-42.76-.4-2.35-.27-4.32-.98-5.41-3.22-3.64-9.73,1.67-66.21-1.83-70.65-.83-1.05-1.86-1.1-3.07-1.25-10.91-1.38-32.31-.42-43.81.29Z"/>
      <path class="cls-1" d="M57.84,307.18c-2.08.23-5.66.2-7.77,0-29.72-2.79-51.31-32.13-44.47-61.27,9.2-39.2,59.98-51.36,85.88-20.24,25.84,31.03,5.82,77.09-33.64,81.51ZM47.29,217.68c-50.9,6.16-41.28,89.66,15.08,78.92,47.17-8.99,39.39-85.51-15.08-78.92Z"/>
      <path class="cls-1" d="M293.35,149.53c26.15-2.04,51.93,14.95,61.49,38.98,23.57,59.29-48.23,110.73-96.72,69.92-42.43-35.71-19.46-104.64,35.23-108.9ZM295.96,158.99c-69.23,1.77-66.65,110.89,8.35,104.16,62.78-5.63,60.11-105.91-8.35-104.16Z"/>
      <path class="cls-1" d="M50.71,237.49c6.92-1.13,15.63,2.82,19.39,8.69,12.36,19.32-11.74,41.27-29.55,26.08-12.72-10.85-5.95-32.14,10.16-34.77ZM50.68,246.96c-4.21.96-7.67,6.37-7.58,10.6.27,12.52,17.52,13.21,20.4,3.93,2.8-9.02-3.47-16.67-12.82-14.53Z"/>
      <path class="cls-1" d="M313.07,226.62c-20,19.99-50.87-10.89-30.38-30.79,20.46-19.87,50.02,11.16,30.38,30.79ZM293.27,199.5c-10.85,2.46-10.96,23.65,4.14,24.04,17.73.46,16.85-28.81-4.14-24.04Z"/>
    </g>
  </g>
</svg>