<?xml version="1.0" encoding="UTF-8"?>
<svg id="Capa_2" data-name="Capa 2" xmlns="http://www.w3.org/2000/svg" viewBox="0 0 359.96 295.46">
  <defs>
    <style>
      .cls-1 {
        fill: #aac810;
      }
    </style>
  </defs>
  <g id="Capa_1-2" data-name="Capa 1">
    <path class="cls-1" d="M125.23,0c3.54,1.97,4.79,3.74,5.25,7.87l.15,95.09c2.17,4.2,5.73,3.81,9.92,3.48l27.4-10.91c3.67-.95,5.65,2.86,6.03,6.06,1.84,15.44-1.43,34.41,0,50.25,1.87,4.9,5.88,4.7,10.35,3.63,13.22-3.17,27.47-11.34,41.05-14.45l3.93-3.57.15-129.58c.46-4.13,1.71-5.9,5.25-7.87h65.24c2.53,1.3,5.25,4.11,5.25,7.12v98.99c0,2.52,7.62,4.53,9.95,3.19l39.36-13.93c3.11-.29,4.16,2.12,5.43,4.36v195.73H0v-130.48l2.28-3.35c14.07-7.33,34.38-11.38,47.74-19,1.21-.69,4.21-3.21,4.57-4.43l.13-128.86c.39-4.55,1.03-7.23,5.28-9.35h65.24ZM68.77,9.9c-6.64,3.7-3.58,8.03-3.49,13.68.08,5.33-.51,10.47-.77,15.77l3.75,4.5,46.89.43c1.52.18,4.66-2.63,5.2-3.8.62-1.36.81-23.56.37-25.84-.36-1.88-2.52-3.18-3.75-4.5l-48.2-.24ZM243.5,9.9c-1.98,1.43-3.98,2.9-4.32,5.43-.49,3.66-.58,20.68.06,24.02.36,1.88,2.52,3.18,3.75,4.5l46.89.43c7.72-2.34,4.96-6.9,4.84-12.42-.06-2.99-.11-6.04-.04-9.02.13-5.18,2.94-8.89-2.98-12.7l-48.2-.24ZM68.02,54.15c-5.77,3-2.86,7.52-2.75,12.19.5,21.09-.76,42.38.36,63.38,2.16,3.21,4.54,3.39,8.24,3.01s38.1-14.04,42.14-16.35c1.72-.98,3.01-2.49,4.34-3.91l.43-53.64c.03-1.93-2.33-4.47-4.18-4.82l-48.57.14ZM242.75,54.15c-1.66,1.05-3.54,2.53-3.57,4.68v69.07c1.02,5.18,5.44,5.39,9.99,4.65,12.49-2.02,29.62-12.11,42.51-15.23,6.07-3.88,3.13-7.34,3-12.68-.29-12.27-.28-25.29,0-37.56.11-4.72,2.93-9.46-2.23-12.7l-49.7-.24ZM339.51,109.66l-170.44,59.86c-3.23-.09-4.61-3.56-4.84-6.42l-.16-49.34c-2.17-4.2-5.73-3.81-9.92-3.48L13.57,166.17l-3.43,3.32v113.2s2.63,2.62,2.63,2.62l49.7.24c.66-.19,2.49-1.85,2.82-2.43,2.27-4.05-.13-27.62.7-34.55.58-4.82,3.3-6.6,7.89-7.11,8.67-.96,27.95-.81,36.78-.03,4.07.36,7.61,1.35,8.41,5.83,1.3,7.3-1.54,30.83.89,35.11.51.91,3.03,3.1,4.18,3.32,2.82.54,21.88.54,24.71,0,1.62-.31,3.82-2.54,4.12-4.12,1.66-8.77-1.05-22.7.01-32.23.71-6.36,3.41-7.4,9.35-7.9,9.2-.78,26.09-.78,35.3,0,1.86.16,5.73.74,7.08,1.92,4.41,3.84,1.28,30.41,2.22,37.52.27,2.02,2.07,4.42,4.18,4.82,2.83.54,21.89.54,24.71,0,1.63-.31,4.57-3.31,4.87-4.87,1.67-8.75-1.05-22.7.02-32.23.56-5,3.02-6.59,7.87-7.13,8.67-.97,27.94-.8,36.78-.03,3.98.35,7.54,1.45,8.42,5.83,1.95,9.69-1.63,24.77.19,34.31.32,1.66,1.84,2.69,3,3.75h50.21l2.62-2.62.43-168.38c-.71-5.34-6.38-5.41-10.74-4.66ZM79.27,251.37c-1.22.36-3.27,2.7-3.51,3.99-.67,3.53-.57,21.65-.06,25.52.21,1.61,1.6,3.84,3.06,4.44,1.73.72,22.97.82,25.89.43,1.61-.21,3.84-1.6,4.44-3.06.72-1.74.83-23.67.43-26.64-.27-2.02-2.07-4.42-4.18-4.82-2.38-.45-24.18-.41-26.08.14ZM167.01,251.37c-1.21.36-4.01,3.45-4.26,4.74-.64,3.34-.54,20.36-.06,24.02.27,2.05,2.83,5.17,4.93,5.57,3.35.64,20.35.55,24.02.06,2.05-.27,5.17-2.83,5.57-4.93.64-3.35.55-20.35.06-24.02-.27-2.05-2.83-5.17-4.93-5.57-2.29-.44-23.53-.4-25.33.14ZM254,251.37c-1.22.36-3.27,2.7-3.51,3.99-.67,3.53-.57,21.65-.06,25.52.21,1.61,1.6,3.84,3.06,4.44,1.73.72,22.97.82,25.89.43,1.61-.21,3.84-1.6,4.44-3.06.72-1.74.83-23.67.43-26.64-.27-2.02-2.07-4.42-4.18-4.82-2.38-.45-24.18-.41-26.08.14Z"/>
  </g>
</svg>