<?xml version="1.0" encoding="UTF-8"?>
<svg id="Capa_2" data-name="Capa 2" xmlns="http://www.w3.org/2000/svg" viewBox="0 0 602.47 466.51">
  <defs>
    <style>
      .cls-1 {
        fill: #aac810;
      }
    </style>
  </defs>
  <g id="Capa_1-2" data-name="Capa 1">
    <g>
      <path class="cls-1" d="M0,310.94c4.57,1.07,4.8-3.49,6.76-4.81,2.08-1.4,6.17-.76,7.25-4.32,1.7-8.81-2.09-58.14,1.69-61.8,1.68-1.62,6.67-.86,7.81-4.65,1.6-5.29-1.71-20.41,1.7-23.82,1.85-1.34,4.03-1.33,6.19-1.52,19.62-1.65,44.15,2.61,62.99.1,2.32-.31,4.29-.69,5.05-3.26.88-2.99.81-25.57.29-29.48-1.4-10.52-19.9-1.99-27.06-6.75l-1.18-2.92c1.17-26.74-2.55-56.48-.34-82.88.18-2.17.18-4.35,1.52-6.19,2.18-2.18,30.27-2.17,33.85-.68,5.29,4.56,15.2,26.56,21.08,27.66h136.45c5.18-.26,6.61,5.54,11.77,4.82,3.82-.54,17.47-20.65,21.42-24.97,14.57-15.97,21.16-15.6,39.4-23.49,20.96-9.07,18.8-31.24,31.8-46.51,13.76-16.17,35.95-20.36,54.38-9.27,5.57,3.35,9.48,9.07,15.61,11.68,8.72,3.71,18.13,1.76,27.89,5.33,21.3,7.78,23.27,21.78,34.63,37.75,14.55,20.44,30.49,19.88,38.14,49.66,1.71,6.67,3.45,29.81,7.98,32.36,2.17,1.22,5.44.51,7.14,2.67l48.27,88.6-2.37,3.5c-30.12,8.82-61.26,14.73-91.32,23.69-4.61,1.38-10.19,2-13.34,5.65-2.24,2.59-20.41,32.82-21.34,35.61-3.32,9.93,5.09,9.25,11.56,13.22,88.76,54.49,18.38,182.62-71.98,143.17-27.95-12.2-44.68-38.38-48.07-68.21-1.43-12.58,4.77-23.12-14.95-19.39-8.01,1.52-2.09,19.01-4.98,25.8-1.24,2.92-5.39,2.51-8.06,2.7-26.63,1.8-55.76-1.02-82.62-.57-8.75-2.41,2.85-26.44-8.74-28.01-18.57-2.51-12.45,6.01-13.72,18.43-10.39,102.05-151.41,100.11-161.34,1.18-.46-4.6,1.73-16.97-2.39-18.97-18.44-2.56-39.42,1.41-57.58-.59-7.33-.8-4.68-5.7-11.25-5.93v-54.58ZM305.54,143.63h225.45c.46,0,2.45-2.32,2.72-3.21,1.98-6.59-3.91-34.06-7.4-40.76-6.65-12.78-19.53-17.59-27.92-27.84-11.1-13.57-15.18-33.2-33.62-39.94-8.35-3.05-16.28-1.67-25.17-4.49-15.07-4.77-21.32-19.03-37.93-19.01-38.3.05-31.11,46.86-59.48,60.36-7.69,3.66-16.07,4.79-23.81,9.41-14.3,8.54-22.84,25.2-34.15,37.03-.71,1.28-.82,2.7-.74,4.13.31,5.51,18.17,18.92,22.07,24.33ZM253.33,286.02h66.45c2.54,0,3.87-7.62,2.82-9.94l-22.71-124.43-34.63-35.38-3.56-1.18-138.67-.22c-1.1-.21-1.99-.53-2.86-1.25-4.82-3.99-11.33-20.85-16.85-25.26-3.35-2.68-20.95-3.38-22.4,1.52,1.1,9.88-2.68,66.59.83,71.07,4.61,5.88,132.35-2.09,149.35,3.13l18.34,116.33c.29,1.54,2.7,5.26,3.89,5.61ZM313.85,153.13c-3.95,2.65-3.2,6.87-2.82,11.13l21.48,118.52c.32,1.13,1.03,2.13,2.09,2.66,2.23,1.1,41.98,1.14,46.77.48,3.21-.44,7.28-1.66,7.82-5.28l-21.44-122.08c.17-1.48-3.56-5.42-4.07-5.42h-49.84ZM380.3,153.13c-3.95,2.65-3.2,6.87-2.82,11.13,3.18,35.52,16.38,74.41,20.11,110.4.64,3.9,3.02,4.15,6.4,4.34,5.7.32,36.22-7.46,42.44-9.9,7.06-2.77,6.15-6.16,5.5-13.2-2.88-31.38-14.44-65.57-17.73-97.36.17-1.48-3.56-5.42-4.07-5.42h-49.84ZM446.75,153.13c-3.95,2.65-3.2,6.87-2.82,11.13,2.66,29.72,13.8,62.23,16.79,92.37.97,3.76,1.64,6.8,6.15,6.91s34.74-8.43,40.71-10.43c6.94-2.33,9.16-1.8,8.46-10.23-2.23-26.91-12.79-56.96-15.38-84.33.17-1.48-3.56-5.42-4.07-5.42h-49.84ZM513.19,153.13c-3.95,2.65-3.2,6.87-2.82,11.13,1.68,18.76,8.58,56.01,13.45,74.35.56,2.09.66,4.35,2.3,6.01,1.42,1.19,3.12,1.07,4.83,1.17,6.12.34,45.03-9.55,51.93-12.27,2.56-1.01,5.25-1.94,5.69-5.1l-40.97-75.28h-34.41ZM212.12,192.57c4.62,4.66-1.66,57.97,2.54,63.32,1.96,2.49,22.95,4.22,21.58-3.67l-11.05-74.49-2.61-4.51-111.04-.51-2.42,4.7.64,77.78c1.71,3.52,16.7,4.09,18.16-.84,1.58-18.07-1.27-37.71.19-55.58.16-2,.18-5.4,2.02-6.57l81.99.38ZM137.64,203.56v51.02c0,3.98,18.45,3.39,22.02,3.04,1.76-.18,6.45-.92,6.45-3.04v-51.02c0-3.98-18.45-3.39-22.02-3.04-2.13.21-5.76.56-6.45,3.04ZM175.61,203.56v51.02c0,3.98,18.45,3.39,22.02,3.04,1.76-.18,6.45-.92,6.45-3.04v-51.02c0-3.98-18.45-3.39-22.02-3.04-2.13.21-5.76.56-6.45,3.04ZM36.43,219.81c-4.93,1.45-3.69,13.35-2.13,17.08,2.16,2.75,12.98,2.19,16.25.59,2.75-2.17,2.19-12.97.59-16.25-1.83-2.32-11.88-2.26-14.71-1.43ZM64.91,219.81c-4.83,1.42-4.45,16.4-.84,18.16,2.08,1.01,26.69,1.11,30.32.64,8.34-1.08,6.18-16.87,2.92-18.45-1.97-.96-29.74-1.13-32.4-.35ZM26.94,248.29c-1.06.31-2.13,1.14-2.62,2.13-1.08,2.22-1.29,44.44-.64,49.3.4,3.01.98,4.64,4.24,5.25,3.77.71,42.47.42,44.47-.55,7.4-12.17,18.49-25.66,24.68-38.21,2.27-4.61,5.98-16.71-1.58-18.12l-68.55.21ZM243.53,294.05l-5.5-25.94-130.42-.85-45,70.1c-1.01,4.55-2.65,22.01,1.46,24.01,11.94,5.81,13.94-8.41,18.04-15.19,33.23-54.96,107.2-54.38,139.98.75,2.38,4.01,4.55,13.5,8.95,14.79,2.75.8,16.88.73,18.85-.83,4.37-3.44-2.01-16.27,6.05-17.62,26.63.86,55.28-2.13,81.69-.34,16.23,1.1,4.53,13.25,10.52,17.97,2.14,1.68,17.05,1.64,19.67.46,3.57-1.6,6.21-11.24,8.56-15.17,13.77-23.05,38.28-39.46,65.64-41.15,5.89-.36,16.35,2.41,20.24.05,1.4-.85,14.54-21.68,15.27-23.87,2.52-7.54-.83-10.02-8.09-9.32-27,2.58-61.87,19.86-89.44,23.32-8.82,1.11-24.5-1.47-31.48.55-3.95,1.15-7.7,14.29-12.45,18.74-14.15,13.25-51.29,13.38-65.09-.43-4.19-4.19-7.97-16.53-11.12-17.95-4.59-2.06-11.7,1.07-16.31-2.08ZM277.3,295.76c-9.82,6.78,4.17,17.57,11.73,18.64,5.84.83,25.95.86,31.42-.41,7.27-1.68,20.01-13.52,8.78-18.44l-51.94.21ZM17.44,314.74c-1.06.31-2.13,1.14-2.62,2.13-.98,2.03-1.2,35.62-.64,39.81.51,3.88,1.41,4.82,5.34,5.34s29.13.36,31.02-1.13c3.49-2.76.72-17.71,1.91-23.01s17.98-21.63,3.96-23.44c-4.79-.62-35.49-.73-38.97.29ZM142.15,314.85c-50.23,5.45-76.96,63.04-52.58,106.46,20.84,37.11,70.85,47.11,104.93,21.83,58.43-43.35,22.89-136.46-52.35-128.29ZM436.41,314.85c-87.66,9.12-79.94,150.17,17.43,142.02,90.36-7.56,82.69-152.43-17.43-142.02ZM264.25,352.71c-1.06.31-2.13,1.14-2.62,2.13-1,2.06-1.12,26.62-.64,30.32.26,2.02.45,3.6,2.42,4.7l68.29.64c1.85,0,3.85-.68,4.7-2.42,1.01-2.07,1.11-26.69.64-30.32-.26-2.02-.45-3.6-2.42-4.7l-70.37-.35Z"/>
      <path class="cls-1" d="M449.42,59.68c4.13,4.13-2.39,10.67-6.53,6.53s2.39-10.67,6.53-6.53Z"/>
      <path class="cls-1" d="M468.53,94.82c-1.76,2.78-10.32.7-7.6-4.58,3.03-5.87,10.81-.51,7.6,4.58Z"/>
      <path class="cls-1" d="M497,104.31c-1.76,2.78-10.32.7-7.6-4.58,3.03-5.87,10.81-.51,7.6,4.58Z"/>
      <path class="cls-1" d="M442.33,343.31c29.74-2.86,53.69,27.27,43.9,55.77-12.89,37.56-65.24,38.76-79.45,1.66-9.99-26.09,7.84-54.76,35.54-57.43ZM438.73,352.76c-8.12,1.29-18.35,9.82-22.28,16.88-16.78,30.15,20.01,63.85,48.61,43.87,29.86-20.86,11.28-66.73-26.33-60.75Z"/>
      <path class="cls-1" d="M148.06,343.31c29.74-2.86,53.69,27.27,43.9,55.77-12.89,37.56-65.24,38.76-79.45,1.66-9.99-26.09,7.84-54.76,35.54-57.43ZM144.46,352.76c-8.12,1.29-18.35,9.82-22.28,16.88-16.82,30.22,20.45,64.07,48.59,43.84,30.23-21.73,10.7-66.61-26.31-60.72Z"/>
    </g>
  </g>
</svg>