<?xml version="1.0" encoding="UTF-8"?>
<svg id="Capa_2" data-name="Capa 2" xmlns="http://www.w3.org/2000/svg" viewBox="0 0 617.37 617.02">
  <defs>
    <style>
      .cls-1 {
        fill: #aac810;
      }
    </style>
  </defs>
  <g id="Capa_1-2" data-name="Capa 1">
    <path class="cls-1" d="M611.13,602.52c-7.15-13.77-8.59-37.72-16.13-50.45-5.37-9.06-17.32-7.36-18.93-10.65-3.11-6.33,1.49-28.64-1.43-38.03-1.54-4.96-9.69-11.3-14.59-11.3h-29.59c-.13,0-1.85-1.72-1.85-1.85v-182.46c0-5.66,22.39,4.46,25.82,4.99,37.98,5.89,55.42-48.04,20.65-65.02L177.23,110.55c-2.28-1.91-1.16-5.61-.66-8.1,3.18-15.91,16.78-38.6,17.85-53.74.83-11.63-7.06-23.21-17.18-28.18C167.78,15.88,124.97,1.02,115.6.19c-2.39-.21-6.3-.28-8.63,0-8.9,1.08-17.87,7.68-21.57,16.03-13.23,45.58-35.41,91.91-47.49,137.44-9.24,34.82,1.92,67.36,35.33,83.06,6.23,2.93,38.49,12.27,39.69,15.79l.03,97.03c-5.03,3.48-10.61,4.91-15.11,9.55-16.44,16.92-9.3,44.67,12.85,52.23,32.05,10.93,57.05-31.72,29.56-54.22-4.14-3.39-12.71-5.52-13.54-9.88l-.08-97.42c1.05-7.23,3.96-14.04,6.19-20.93,2.13-6.57,16.87-50.74,19.04-52.5,1.46-1.19,2.7-1.32,4.42-.62l132.31,45.33,1.88,1.82c.61,1.79.61,36.09,0,37.88-.73,2.14-8.91,3.56-12.2,6.29-3.58,2.97-5.44,7.37-6.79,11.7l-36.92,209.66c-1.89,6.09-10.4,3.13-15.91,3.82-7.13.89-19.25,7.19-19.25,15.27v34.52c0,.13-1.72,1.85-1.85,1.85h-69.04c-.13,0-1.85-1.72-1.85-1.85v-96.16c0-7.02-13.56-5.48-13.56,1.23v94.93c0,.13-1.72,1.85-1.85,1.85H43.48c-2.43,0-9.33,6.42-10.73,8.99-7.2,13.24-8.61,35.58-15.7,49.65-2.87,3.28-7.84.97-11.57,2.01-2.21.62-2.4,2.72-3.3,3.46l-1.23,3.7c-2.76,3.57,1.03,6.43,4.93,4.93h611.5v-12.33l-6.25-1.77ZM530.46,505.66h29.59c.13,0,1.85,1.72,1.85,1.85v34.52c0,.13-1.72,1.85-1.85,1.85h-76.44c-.13,0-1.85-1.72-1.85-1.85v-34.52c0-.34,1.44-1.22,1.85-1.85h29.59c.13,0,1.85,1.72,1.85,1.85v18.49c0,6.64,13.56,6.64,13.56,0v-18.49c0-.13,1.72-1.85,1.85-1.85ZM337.55,179.46c78.88,28.26,159.34,52.97,237.31,83.31,12.67,14.18,3.15,39.52-17.27,37.02l-181.82-62.38c-8.05-2.88-13.09,7.9-5.87,12.12,44.39,16.81,91.89,29.26,135.93,46.53,2.16.85,8.42,2.63,9.06,4.5l-.02,179.64c-.84,2.57-3.77,2.61-5.96,1.41l-41.05-31.76c-4.64-2.28-10.34,1.7-9.55,7.03.98,6.65,37.02,27,37.08,32.13.05,4.58-7.28,2.67-10.4,3.21-26.5,4.59-13.37,29.32-16.81,47.3-.26,1.35-2.13,4.35-3.05,4.35h-34.52c-.13,0-1.85-1.72-1.85-1.85,0-9.63,1.43-25.9,0-34.52-1.47-8.84-11.02-14.25-19.25-15.27-5.51-.69-14.02,2.28-15.91-3.82l-36.92-209.66c-1.35-4.34-3.21-8.73-6.79-11.7-4.22-3.5-8.57-2.81-12.2-6.29-1.93-20.43,2-43.91-.16-63.95-.65-6.05-10.06-19.05.03-17.36ZM327.73,446.93c-.7-2.29,1.05-3.44,2.35-4.81,2.2-2.3,31.04-23.25,33.01-23.75,2.25-.58,4.27-.64,5,1.86l10.03,55.41c.49,1.68-.05,4.89-1.8,5.36-2.87.77-42.8-30.21-48.59-34.06ZM356.68,492.16l-88.24-.64c-1.4-.97-1.49-1.98-1.05-3.56.88-3.15,39.46-28.37,45.14-32.66,1.84-.64,3.25.14,4.9.76,3.99,1.51,17.16,11.99,21.71,15.3,4.82,3.51,16.72,10.99,19.97,14.55,3.23,3.55,2.36,5.97-2.42,6.24ZM353.49,375.64c-9.26-6.99-17.14-21.17-27.13-28.34-1.68-1.88-1.71-4.37,0-6.3,5.29-3.11,14.61-18.69,19.42-20.08,4.74-1.37,4.84,1.34,5.74,4.91,2.58,10.24,7.89,36.31,8.23,46.12.19,5.54-1.78,7.07-6.26,3.68ZM323.88,195.67c1.68,10.71,1.5,51.71.13,62.86-.13,1.02.02,2.21-.6,3.1-1.01,1.45-19.28,3.2-19.19-1.93l.07-64.04c.49-3.63,3.38-7.06,6.99-7.84,5.97-1.3,11.62,1.62,12.59,7.84ZM87.72,48.24c.79-4.03,7.91-23.47,9.94-27.16,2.5-4.53,6.24-7.54,11.48-8.3,6.82-.98,23.05,5.87,30.53,8.34,7.34,2.42,33.05,10.41,37.03,14.75,3.01,3.28,4.49,8.44,4.17,12.83-.22,3.11-8.8,28.09-10.29,29.26-.79.62-1.56,1.11-2.61,1.13l-79.61-26.43c-1.47-1.43-.96-2.73-.63-4.44ZM122.35,399.66c-25.92,1.94-26.48-34.96-3.32-36.76,24.13-1.87,26.53,35.02,3.32,36.76ZM116.33,235.78c-.73.71-1.6,1.03-2.61,1.13-2.55.25-30.92-9.95-34.97-11.86-30.24-14.28-39.98-50.9-22.94-79.38h88.77c.62,0,2.02,2.05,1.9,3.08l-30.15,87.04ZM151.97,132.1H61.97c-1.23-.37-2.29-2.59-1.64-4,6.02-15.04,10.15-30.81,15.8-45.96,1.82-4.88,3.9-15.16,9.25-15.5,9.31,3.46,76.79,22.45,78.98,25.99,1.13,1.82.37,3.21.04,4.99-1.91,10.3-8.83,24.46-12.42,34.48ZM287.67,207.28l-128.95-44.93c-1.21-.97-1.27-2.27-1.28-3.69-.01-1.78,9.2-28.89,10.55-31.5.71-1.37.93-2.96,2.68-3.51l137.63,45.68c7.54,4.47-6.18,8.2-8.94,10.31-4.2,3.2-7.44,9.91-8.4,15.02-.7,3.75,1.36,12.53-3.29,12.62ZM287.83,276.59c10.28,1.61,46.22-3.22,53.4.36,3.09,1.54,5.73,20.89,4.66,24.42-.69,2.28-21.42,21.9-25.04,25.5-2.56,2.56-3.29,7.53-8.37,6.02l-30.19-31.53c-.43-4.98.89-23.39,5.54-24.78ZM276.45,326.86c.49-1.84.53-5.32,2.64-6.05,1.95-.67,3.27.14,4.86,1.09,1.12.67,17.16,17.89,17.87,19.1,1.4,2.37,1.97,4,0,6.3-9.98,7.16-17.88,21.37-27.13,28.34-3.73,2.81-6,2.65-6.32-2.5-.34-5.4,6.26-39.46,8.08-46.29ZM269.64,398.95l42.87-43.53c1.78-.5,3.34-.29,4.73.99l41.3,42.53c1.46,1.58,1.65,3.74.57,5.6-7.19,4.05-39.38,31.63-44.46,32.14-1.07.11-2.07-.09-2.97-.7-11.29-10.65-28.17-18.34-39.4-28.45-2.91-2.62-5.65-4.43-2.64-8.59ZM250.07,475.64c1.13-16.94,8.42-36.99,9.83-54.38.14-1.33.52-2.59,1.93-3.06,1.98-.67,3.26.33,4.89,1.06,4.84,2.16,19.93,14.1,25.04,18.1,2.58,2.02,9.77,6.04,8.69,9.57-5.72,3.97-45.63,34.85-48.59,34.06-2.07-.56-1.92-3.59-1.8-5.36ZM213,508.74c.11-.41,1.92-2.18,2.48-2.45h197.22c.58.27,2.48,2.23,2.48,2.45v33.29c0,.13-1.72,1.85-1.85,1.85h-198.49c-.13,0-1.85-1.72-1.85-1.85,0-7.08-1.41-28.27,0-33.29ZM594.57,604.29H33.62c-2.15-.66-1.84-3.52-1.62-5.23.5-3.74,11.19-38.91,12.68-40.42,1.06-1.07,2.21-1.32,3.66-1.27l532.66.07c2.81.19,3.11,2.5,4.04,4.59,2.41,5.35,10.42,31.57,11.13,37.04.2,1.53.24,5.23-1.62,5.23Z"/>
  </g>
</svg>