<?xml version="1.0" encoding="UTF-8"?>
<svg id="Capa_2" data-name="Capa 2" xmlns="http://www.w3.org/2000/svg" viewBox="0 0 406.74 264.94">
  <defs>
    <style>
      .cls-1 {
        fill: #aac810;
      }
    </style>
  </defs>
  <g id="Capa_1-2" data-name="Capa 1">
    <path class="cls-1" d="M396.18,133.34c-10.76-1.37-38.39-1.18-49.41-.08-4.91.49-9.82,2.36-12.53,6.63-1.41,2.21-1.55,4.64-2.43,6.35-1.5,2.91-3.52,1.42-3.85-1.37-.99-8.63,2.09-32.78-1.23-38.7-1.16-2.07-5.73-4.86-7.92-4.86h-43.91c-.08,0-1.2-1.11-1.2-1.2v-47.11c0-.33-3.87-4.28-5.15-3.63h-104.69c-2.02-.95-5.94,3.15-5.94,4.43v99.01c0,.08-1.11,1.2-1.2,1.2h-19.96c-.08,0-1.2-1.11-1.2-1.2v-35.93c0-1.35,4.91-2.49,6.03-3.55,3.21-3.05,3.51-24.79-2.44-24.79h-19.96c-.08,0-1.2-1.11-1.2-1.2v-44.71c0-3.21-4.39-7.59-7.59-7.59h-26.35c-.08,0-1.2-1.11-1.2-1.2V2.7c0-3.17-7.32-4.01-7.98,0-1.48,8.97,1.1,21.73,0,31.14-.41.26-.98,1.2-1.2,1.2h-26.35c-3.21,0-7.59,4.39-7.59,7.59v44.71c0,.08-1.11,1.2-1.2,1.2h-19.96c-5.68,0-4.86,16.56-4.41,20.38.86,7.28,7.2,4.79,7.98,8.79-.9,10.58,1.27,23.25.06,33.55-.09.8-.36,2.75-1.24,2.75h-12.78c-3.63,0-7.01,5.58-8.23,8.54,4.17,13.73,8.54,26.44,15.96,38.81,2.97,4.96,17.04,21.95,17.39,24.98,1.25,10.62-22.06,30.93-4.8,38.27l316.55.32c2.45-.63,5.05-1.8,6.2-4.18l55.42-117.53c-1.99-5.97-3.9-9.05-10.56-9.89ZM273.71,112.09c0-.26,1.64-1.46,2-2h42.32c.08,0,1.2,1.11,1.2,1.2v41.52c0,.08-1.11,1.2-1.2,1.2h-43.12c-.08,0-1.2-1.11-1.2-1.2v-40.72ZM220.21,58.59c0-.22.93-.79,1.2-1.2h43.12c.08,0,1.2,1.11,1.2,1.2v41.52c0,.08-1.11,1.2-1.2,1.2h-43.12c-.08,0-1.2-1.11-1.2-1.2v-41.52ZM220.21,111.29c0-.22.93-.79,1.2-1.2h43.12c.08,0,1.2,1.11,1.2,1.2v41.52c0,.08-1.11,1.2-1.2,1.2h-43.12c-.08,0-1.2-1.11-1.2-1.2v-41.52ZM165.92,59.39c0-.26,1.64-1.46,2-2h42.32c.08,0,1.2,1.11,1.2,1.2v41.52c0,.08-1.11,1.2-1.2,1.2h-43.12c-.08,0-1.2-1.11-1.2-1.2v-40.72ZM165.92,112.09c0-.26,1.64-1.46,2-2h42.32c.08,0,1.2,1.11,1.2,1.2v41.52c0,.08-1.11,1.2-1.2,1.2h-43.12c-.08,0-1.2-1.11-1.2-1.2v-40.72ZM48.55,45.02c0-.22.93-.79,1.2-1.2h58.29c.08,0,1.2,1.11,1.2,1.2v42.32c0,.08-1.11,1.2-1.2,1.2h-58.29c-.08,0-1.2-1.11-1.2-1.2v-42.32ZM24.31,96.63l109.72.24c1.17.82,1.51,9.24-.56,9.92l-67.8.07c-4.97.67-5.95,6.55-.74,8l61.05.43c.38.18,1.61,1.45,1.61,1.58v35.93c0,.08-1.11,1.2-1.2,1.2H31.38c-.08,0-1.2-1.11-1.2-1.2v-35.93c1.09-3.9,10.46.24,11.04-4.97.99-8.85-14.15-3.04-17.48-5.36-1.17-.82-1.51-9.24.56-9.92ZM396.67,144.75l-35.47,75.58-2.42.78-59.1-.02c-4.98.97-2.92,7.97-.82,7.97h55.89c.64.2,1.18,1.26,1.24,2,.31,3.77-9.81,19.32-10.87,24.3l-2.37,1.62-310.46-.1c-.66-.16-1.02-.57-1.23-1.2-.97-2.91,6.08-14.86,7.79-18.36,1.16-2.38,2.12-7.82,4.49-8.28l227.6.05c7.34.43,6.85-8.57,0-8.05l-229.84-.12c-12.52-14.14-23.71-29.87-29.31-48.14-.5-1.62-3.61-10-1.18-10h316.18c2.82,0,8.22-3.65,9.98-5.99,3.5-4.67,2.05-8.04,3.61-11.56.17-.39,2.96-3.21,3.18-3.21h51.9c.61,0,1.54,1.87,1.2,2.72Z"/>
  </g>
</svg>